<svg width="13" height="13" viewBox="0 0 13 13" fill="none" xmlns="http://www.w3.org/2000/svg">
<path d="M12.6002 4.2536C12.6002 3.61412 12.4524 3.25885 12.3045 2.83252C12.1567 2.47725 11.935 2.12198 11.6393 1.83777C11.3437 1.4825 10.9741 1.34039 10.6045 1.19828C10.235 1.05617 9.7915 0.985117 9.12628 0.914063C8.46106 0.914062 8.23933 0.914062 6.61324 0.914062C5.06107 0.914062 4.83933 0.914062 4.17411 0.914062C3.50889 0.914062 3.13933 1.05617 2.69585 1.19828C2.32628 1.34039 1.95672 1.55355 1.66106 1.83777C1.36541 2.19304 1.14367 2.47725 0.995847 2.90358C0.848021 3.25885 0.774108 3.68517 0.700195 4.2536C0.700195 4.89309 0.700195 5.10625 0.700195 6.59839C0.700195 8.16158 0.700195 8.37474 0.700195 8.94317C0.700195 9.58266 0.848021 9.93793 0.995847 10.3643C1.14367 10.7195 1.36541 11.0748 1.66106 11.359C2.03063 11.7143 2.32628 11.8564 2.69585 11.9985C3.06541 12.1406 3.50889 12.2117 4.17411 12.2827C4.83933 12.2827 4.98715 12.2827 6.61324 12.2827C8.23933 12.2827 8.46106 12.2827 9.05237 12.2827C9.71759 12.2827 10.0872 12.1406 10.5306 11.9985C10.9002 11.8564 11.2698 11.6432 11.5654 11.359C11.935 11.0037 12.0828 10.7195 12.2306 10.3643C12.3785 10.009 12.4524 9.58266 12.5263 8.94317C12.6002 8.30369 12.5263 8.16158 12.5263 6.59839C12.5263 5.0352 12.6002 4.89309 12.6002 4.2536ZM6.61324 9.58266C4.91324 9.58266 3.5828 8.23263 3.5828 6.66944C3.5828 5.0352 4.98715 3.75623 6.61324 3.75623C8.31324 3.75623 9.64367 5.10625 9.64367 6.66944C9.71759 8.23263 8.31324 9.58266 6.61324 9.58266ZM9.7915 4.2536C9.42194 4.2536 9.05237 3.96939 9.05237 3.54306C9.05237 3.18779 9.34802 2.83252 9.7915 2.83252C10.1611 2.83252 10.5306 3.11674 10.5306 3.54306C10.5306 3.96939 10.235 4.2536 9.7915 4.2536Z" fill="#E8E8E8"/>
<path d="M8.60849 6.59741C8.60849 7.66322 7.72154 8.51587 6.61284 8.51587C5.50414 8.51587 4.61719 7.66322 4.61719 6.59741C4.61719 5.53159 5.57806 4.75 6.61284 4.75C7.72154 4.75 8.60849 5.60265 8.60849 6.59741Z" fill="#E8E8E8"/>
</svg>
