<svg width="14" height="14" viewBox="0 0 14 14" fill="none" xmlns="http://www.w3.org/2000/svg">
<path d="M12.3565 0.742188H0.947532C0.424756 0.742188 0 1.13897 0 1.62606V12.1176C0 12.6047 0.424756 13.0015 0.947532 13.0015H12.3565C12.8793 13.0015 13.307 12.6047 13.307 12.1176V1.62606C13.307 1.13897 12.8793 0.742188 12.3565 0.742188ZM4.02181 11.2502H2.04952V5.39963H4.02479V11.2502H4.02181ZM3.03567 4.60058C2.40299 4.60058 1.89209 4.12718 1.89209 3.54705C1.89209 2.96692 2.40299 2.49352 3.03567 2.49352C3.66538 2.49352 4.17924 2.96692 4.17924 3.54705C4.17924 4.12992 3.66835 4.60058 3.03567 4.60058ZM11.4149 11.2502H9.44265V8.40425C9.44265 7.72561 9.4278 6.85268 8.41789 6.85268C7.39016 6.85268 7.23273 7.59153 7.23273 8.355V11.2502H5.26044V5.39963H7.15253V6.19867H7.17927C7.44362 5.73895 8.08818 5.2546 9.0476 5.2546C11.0437 5.2546 11.4149 6.46685 11.4149 8.04304V11.2502Z" fill="#E8E8E8"/>
</svg>
