<svg width="13" height="11" viewBox="0 0 13 11" fill="none" xmlns="http://www.w3.org/2000/svg">
<path d="M11.6444 2.77289C11.6522 2.88652 11.6522 3.00018 11.6522 3.11381C11.6522 6.57973 9.13672 10.5733 4.5392 10.5733C3.12278 10.5733 1.80701 10.1431 0.700195 9.39634C0.90144 9.42067 1.09492 9.42879 1.30391 9.42879C2.47262 9.42879 3.54848 9.01484 4.40761 8.30867C3.30854 8.28431 2.38749 7.52943 2.07015 6.49046C2.22496 6.51479 2.37975 6.53103 2.5423 6.53103C2.76675 6.53103 2.99123 6.49855 3.20019 6.44176C2.05469 6.19823 1.19553 5.14304 1.19553 3.86868V3.83623C1.52833 4.03103 1.91536 4.15279 2.32555 4.169C1.65217 3.69821 1.21102 2.89464 1.21102 1.98554C1.21102 1.49853 1.33483 1.0521 1.55156 0.662481C2.78221 2.2534 4.63206 3.29235 6.70634 3.40601C6.66765 3.2112 6.64442 3.0083 6.64442 2.80537C6.64442 1.36054 7.75897 0.183594 9.14441 0.183594C9.86422 0.183594 10.5144 0.500154 10.971 1.01152C11.536 0.89789 12.0778 0.678722 12.5577 0.378402C12.3719 0.987186 11.9772 1.49855 11.4586 1.82321C11.9617 1.76642 12.4494 1.62028 12.8983 1.41738C12.5578 1.93684 12.132 2.39949 11.6444 2.77289Z" fill="#E8E8E8"/>
</svg>
