<svg width="14" height="10" viewBox="0 0 14 10" fill="none" xmlns="http://www.w3.org/2000/svg">
<path fill-rule="evenodd" clip-rule="evenodd" d="M5.59191 6.48588V2.70956C6.98645 3.34037 8.06651 3.94976 9.34392 4.60675C8.29034 5.16845 6.98645 5.79869 5.59191 6.48588ZM13.3637 0.831416C13.1231 0.526743 12.7132 0.289581 12.2767 0.211064C10.9937 -0.0231466 2.98969 -0.0238128 1.70741 0.211064C1.35738 0.274144 1.04569 0.426618 0.777933 0.663513C-0.350254 1.67014 0.00326636 7.06835 0.275203 7.94278C0.389555 8.32128 0.537383 8.59424 0.723555 8.77342C0.963416 9.01031 1.29183 9.17343 1.66905 9.24657C2.72542 9.45663 8.16763 9.57407 12.2543 9.27812C12.6309 9.21504 12.9642 9.04667 13.227 8.79971C14.2701 7.79711 14.199 2.09574 13.3637 0.831416Z" fill="#E8E8E8"/>
</svg>
